# xmcd
#
# Track frame offsets:
#	150
#	16888
#	38087
#	56693
#	80986
#	99268
#	107774
#	126521
#	141627
#	155536
#	176364
#
# Disc length: 2749 seconds
#
# Revision: 1
# Processed by: cddbd v1.5.2PL0 Copyright (c) Steve Scherf et al.
# Submitted via: audiograbber 1.83.01
#
DISCID=950abb0b
DTITLE=Triumphant Quartet - We Need A Little Christmas!
DYEAR=2007
DGENRE=Christmas
TTITLE0=Jesus, What A Wonderful Child
TTITLE1=Hope Has Hands
TTITLE2=Mary's Christmas
TTITLE3=Christmas Shoes
TTITLE4=Jesus Is Born Today
TTITLE5=God Rest Ye Merry Gentlemen
TTITLE6=Jesus Is Lord
TTITLE7=O Holy Night
TTITLE8=We Need A Little Christmas
TTITLE9=I Thjnk I Seen Ol' Santa
TTITLE10=Medley Of Fun
EXTD=
EXTT0=
EXTT1=
EXTT2=
EXTT3=
EXTT4=
EXTT5=
EXTT6=
EXTT7=
EXTT8=
EXTT9=
EXTT10=
PLAYORDER=
